<mxfile host="app.diagrams.net" agent="Mozilla/5.0 (Windows NT 10.0; Win64; x64) AppleWebKit/537.36 (KHTML, like Gecko) Chrome/127.0.0.0 Safari/537.36" version="24.7.6" pages="6">
  <diagram name="Home Page - No Login" id="YtsLtjv597J_4w6NG1Qv">
    <mxGraphModel dx="1323" dy="743" grid="1" gridSize="10" guides="1" tooltips="1" connect="1" arrows="1" fold="1" page="1" pageScale="1" pageWidth="850" pageHeight="1100" math="0" shadow="0">
      <root>
        <mxCell id="0" />
        <mxCell id="1" parent="0" />
        <mxCell id="EjhWll9vh8XlGAGEeRtv-2" value="" style="rounded=0;whiteSpace=wrap;html=1;fillColor=#48BCC4;" parent="1" vertex="1">
          <mxGeometry x="120" width="580" height="810" as="geometry" />
        </mxCell>
        <mxCell id="5flC0jKzOp5al7qaTR1y-3" value="" style="rounded=1;whiteSpace=wrap;html=1;movable=1;resizable=1;rotatable=1;deletable=1;editable=1;locked=0;connectable=1;arcSize=0;fillColor=#3DB6BA;" parent="1" vertex="1">
          <mxGeometry x="120" width="580" height="60" as="geometry" />
        </mxCell>
        <mxCell id="5flC0jKzOp5al7qaTR1y-4" value="&lt;font style=&quot;font-size: 24px;&quot;&gt;Notes&lt;/font&gt;" style="text;html=1;align=center;verticalAlign=middle;whiteSpace=wrap;rounded=0;movable=1;resizable=1;rotatable=1;deletable=1;editable=1;locked=0;connectable=1;" parent="1" vertex="1">
          <mxGeometry x="130" y="10" width="80" height="40" as="geometry" />
        </mxCell>
        <mxCell id="5flC0jKzOp5al7qaTR1y-6" value="&lt;font style=&quot;font-size: 15px;&quot;&gt;Login&lt;/font&gt;" style="text;html=1;align=center;verticalAlign=middle;whiteSpace=wrap;rounded=0;movable=1;resizable=1;rotatable=1;deletable=1;editable=1;locked=0;connectable=1;" parent="1" vertex="1">
          <mxGeometry x="620" y="15" width="60" height="30" as="geometry" />
        </mxCell>
        <mxCell id="5flC0jKzOp5al7qaTR1y-7" value="&lt;font style=&quot;font-size: 15px;&quot;&gt;Sign Up&lt;/font&gt;" style="text;html=1;align=center;verticalAlign=middle;whiteSpace=wrap;rounded=0;movable=1;resizable=1;rotatable=1;deletable=1;editable=1;locked=0;connectable=1;" parent="1" vertex="1">
          <mxGeometry x="540" y="15" width="60" height="30" as="geometry" />
        </mxCell>
        <mxCell id="VovZ6n3R5ywatHSzWjU2-3" value="&lt;h1 style=&quot;margin-top: 0px;&quot;&gt;Welcome to Notes&lt;/h1&gt;&lt;p&gt;Lorem ipsum dolor sit amet, consectetur adipisicing elit, sed do eiusmod tempor incididunt ut labore et dolore magna aliqua.&lt;/p&gt;" style="text;html=1;whiteSpace=wrap;overflow=hidden;rounded=0;" parent="1" vertex="1">
          <mxGeometry x="140" y="80" width="360" height="170" as="geometry" />
        </mxCell>
        <mxCell id="VovZ6n3R5ywatHSzWjU2-4" value="&lt;font style=&quot;font-size: 15px;&quot;&gt;Start&lt;/font&gt;" style="rounded=1;whiteSpace=wrap;html=1;fillColor=#00FFFF;" parent="1" vertex="1">
          <mxGeometry x="140" y="190" width="90" height="30" as="geometry" />
        </mxCell>
        <mxCell id="VovZ6n3R5ywatHSzWjU2-6" value="&lt;h1 style=&quot;margin-top: 0px;&quot;&gt;Heading&lt;/h1&gt;&lt;p&gt;Lorem ipsum dolor sit amet, consectetur adipisicing elit, sed do eiusmod tempor incididunt ut labore et dolore magna aliqua.&lt;/p&gt;" style="text;html=1;whiteSpace=wrap;overflow=hidden;rounded=0;" parent="1" vertex="1">
          <mxGeometry x="140" y="400" width="160" height="150" as="geometry" />
        </mxCell>
        <mxCell id="VovZ6n3R5ywatHSzWjU2-9" value="&lt;h1 style=&quot;margin-top: 0px;&quot;&gt;Heading&lt;/h1&gt;&lt;p&gt;Lorem ipsum dolor sit amet, consectetur adipisicing elit, sed do eiusmod tempor incididunt ut labore et dolore magna aliqua.&lt;/p&gt;" style="text;html=1;whiteSpace=wrap;overflow=hidden;rounded=0;" parent="1" vertex="1">
          <mxGeometry x="330" y="400" width="160" height="150" as="geometry" />
        </mxCell>
        <mxCell id="VovZ6n3R5ywatHSzWjU2-11" value="&lt;h1 style=&quot;margin-top: 0px;&quot;&gt;Heading&lt;/h1&gt;&lt;p&gt;Lorem ipsum dolor sit amet, consectetur adipisicing elit, sed do eiusmod tempor incididunt ut labore et dolore magna aliqua.&lt;/p&gt;" style="text;html=1;whiteSpace=wrap;overflow=hidden;rounded=0;" parent="1" vertex="1">
          <mxGeometry x="530" y="400" width="160" height="150" as="geometry" />
        </mxCell>
        <mxCell id="VovZ6n3R5ywatHSzWjU2-20" value="" style="rounded=0;whiteSpace=wrap;html=1;fillColor=#181616;" parent="1" vertex="1">
          <mxGeometry x="120" y="580" width="580" height="230" as="geometry" />
        </mxCell>
        <mxCell id="VovZ6n3R5ywatHSzWjU2-21" value="&lt;font color=&quot;#26e9ff&quot; size=&quot;1&quot; style=&quot;&quot;&gt;&lt;b style=&quot;font-size: 30px;&quot;&gt;Footer&lt;/b&gt;&lt;/font&gt;" style="text;html=1;align=center;verticalAlign=middle;whiteSpace=wrap;rounded=0;movable=1;resizable=1;rotatable=1;deletable=1;editable=1;locked=0;connectable=1;" parent="1" vertex="1">
          <mxGeometry x="350" y="640" width="120" height="40" as="geometry" />
        </mxCell>
        <mxCell id="VovZ6n3R5ywatHSzWjU2-95" value="&lt;b&gt;&lt;font style=&quot;font-size: 20px;&quot;&gt;Main Features&lt;/font&gt;&lt;/b&gt;" style="text;html=1;align=center;verticalAlign=middle;whiteSpace=wrap;rounded=0;fillColor=#48BCC4;" parent="1" vertex="1">
          <mxGeometry x="325" y="260" width="160" height="30" as="geometry" />
        </mxCell>
        <mxCell id="VovZ6n3R5ywatHSzWjU2-97" value="" style="image;aspect=fixed;html=1;points=[];align=center;fontSize=12;image=img/lib/azure2/networking/Traffic_Manager_Profiles.svg;" parent="1" vertex="1">
          <mxGeometry x="140" y="342" width="48" height="48" as="geometry" />
        </mxCell>
        <mxCell id="VovZ6n3R5ywatHSzWjU2-98" value="" style="image;aspect=fixed;html=1;points=[];align=center;fontSize=12;image=img/lib/azure2/identity/Azure_AD_Privilege_Identity_Management.svg;" parent="1" vertex="1">
          <mxGeometry x="330" y="342" width="48" height="48" as="geometry" />
        </mxCell>
        <mxCell id="VovZ6n3R5ywatHSzWjU2-99" value="" style="image;sketch=0;aspect=fixed;html=1;points=[];align=center;fontSize=12;image=img/lib/mscae/Azure_AD_Privileged_Identity_Management.svg;" parent="1" vertex="1">
          <mxGeometry x="530" y="330" width="50" height="50" as="geometry" />
        </mxCell>
        <mxCell id="VovZ6n3R5ywatHSzWjU2-103" value="" style="image;aspect=fixed;html=1;points=[];align=center;fontSize=12;image=img/lib/azure2/compute/Shared_Image_Galleries.svg;" parent="1" vertex="1">
          <mxGeometry x="530" y="80" width="120" height="120" as="geometry" />
        </mxCell>
      </root>
    </mxGraphModel>
  </diagram>
  <diagram id="C2n_NYNymnxUVJofGS9h" name="Home Page - Login In">
    <mxGraphModel dx="1323" dy="743" grid="1" gridSize="10" guides="1" tooltips="1" connect="1" arrows="1" fold="1" page="1" pageScale="1" pageWidth="850" pageHeight="1100" math="0" shadow="0">
      <root>
        <mxCell id="0" />
        <mxCell id="1" parent="0" />
        <mxCell id="3x4hByumME01eo94Uom0-1" value="" style="rounded=0;whiteSpace=wrap;html=1;" vertex="1" parent="1">
          <mxGeometry x="120" y="80" width="590" height="950" as="geometry" />
        </mxCell>
        <mxCell id="WuStIot8D7VK95Nnwk7J-1" value="" style="rounded=0;whiteSpace=wrap;html=1;movable=1;resizable=1;rotatable=1;deletable=1;editable=1;locked=0;connectable=1;" vertex="1" parent="1">
          <mxGeometry x="120" y="80" width="590" height="61.03" as="geometry" />
        </mxCell>
        <mxCell id="WuStIot8D7VK95Nnwk7J-2" value="&lt;font style=&quot;font-size: 24px;&quot;&gt;Note&lt;/font&gt;" style="text;html=1;align=center;verticalAlign=middle;whiteSpace=wrap;rounded=0;movable=1;resizable=1;rotatable=1;deletable=1;editable=1;locked=0;connectable=1;" vertex="1" parent="1">
          <mxGeometry x="130" y="90" width="80" height="40" as="geometry" />
        </mxCell>
        <mxCell id="WuStIot8D7VK95Nnwk7J-3" value="&lt;font style=&quot;font-size: 15px;&quot;&gt;Logout&lt;/font&gt;" style="text;html=1;align=center;verticalAlign=middle;whiteSpace=wrap;rounded=0;movable=1;resizable=1;rotatable=1;deletable=1;editable=1;locked=0;connectable=1;" vertex="1" parent="1">
          <mxGeometry x="630" y="95" width="60" height="30" as="geometry" />
        </mxCell>
        <mxCell id="WuStIot8D7VK95Nnwk7J-4" value="&lt;span style=&quot;font-size: 15px;&quot;&gt;All Notes&lt;/span&gt;" style="text;html=1;align=center;verticalAlign=middle;whiteSpace=wrap;rounded=0;movable=1;resizable=1;rotatable=1;deletable=1;editable=1;locked=0;connectable=1;" vertex="1" parent="1">
          <mxGeometry x="540" y="95" width="70" height="30" as="geometry" />
        </mxCell>
        <mxCell id="WuStIot8D7VK95Nnwk7J-5" value="&lt;font style=&quot;font-size: 15px;&quot;&gt;Category&lt;/font&gt;" style="text;html=1;align=center;verticalAlign=middle;whiteSpace=wrap;rounded=0;movable=1;resizable=1;rotatable=1;deletable=1;editable=1;locked=0;connectable=1;" vertex="1" parent="1">
          <mxGeometry x="460" y="95" width="60" height="30" as="geometry" />
        </mxCell>
        <mxCell id="3x4hByumME01eo94Uom0-3" value="Welcome, Nafreen - Add Notes" style="text;strokeColor=none;fillColor=none;html=1;fontSize=24;fontStyle=1;verticalAlign=middle;align=center;" vertex="1" parent="1">
          <mxGeometry x="120" y="160" width="400" height="40" as="geometry" />
        </mxCell>
        <mxCell id="3x4hByumME01eo94Uom0-18" value="&lt;span style=&quot;font-size: 12px;&quot;&gt;Add Note&lt;/span&gt;" style="rounded=1;html=1;shadow=0;dashed=0;whiteSpace=wrap;fontSize=10;fillColor=#666666;align=center;strokeColor=#2EEB2A;fontColor=#ffffff;" vertex="1" parent="1">
          <mxGeometry x="220" y="420" width="380" height="40" as="geometry" />
        </mxCell>
        <mxCell id="3x4hByumME01eo94Uom0-26" value="&lt;font style=&quot;font-size: 18px;&quot;&gt;Latest 5 Notes&lt;/font&gt;" style="text;strokeColor=none;fillColor=none;html=1;fontSize=24;fontStyle=1;verticalAlign=middle;align=center;" vertex="1" parent="1">
          <mxGeometry x="130" y="550" width="140" height="40" as="geometry" />
        </mxCell>
        <mxCell id="3x4hByumME01eo94Uom0-28" value="" style="line;strokeWidth=2;html=1;" vertex="1" parent="1">
          <mxGeometry x="120" y="590" width="590" height="10" as="geometry" />
        </mxCell>
        <mxCell id="3x4hByumME01eo94Uom0-29" value="&lt;h1 style=&quot;margin-top: 0px;&quot;&gt;Heading&lt;/h1&gt;&lt;p&gt;Lorem ipsum dolor sit amet, consectetur adipisicing elit, sed do eiusmod tempor incididunt ut labore et dolore magna aliqua.&lt;/p&gt;" style="text;html=1;whiteSpace=wrap;overflow=hidden;rounded=0;" vertex="1" parent="1">
          <mxGeometry x="130" y="610" width="510" height="90" as="geometry" />
        </mxCell>
        <mxCell id="3x4hByumME01eo94Uom0-34" value="" style="shape=image;html=1;verticalAlign=top;verticalLabelPosition=bottom;labelBackgroundColor=#ffffff;imageAspect=0;aspect=fixed;image=https://cdn3.iconfinder.com/data/icons/user-interface-797/32/User_interface_option_horizontal_list_menu_UI-128.png;rotation=90;" vertex="1" parent="1">
          <mxGeometry x="646" y="641" width="28" height="28" as="geometry" />
        </mxCell>
        <mxCell id="3x4hByumME01eo94Uom0-35" value="&lt;h1 style=&quot;margin-top: 0px;&quot;&gt;Heading&lt;/h1&gt;&lt;p&gt;Lorem ipsum dolor sit amet, consectetur adipisicing elit, sed do eiusmod tempor incididunt ut labore et dolore magna aliqua.&lt;/p&gt;" style="text;html=1;whiteSpace=wrap;overflow=hidden;rounded=0;" vertex="1" parent="1">
          <mxGeometry x="130" y="700" width="510" height="90" as="geometry" />
        </mxCell>
        <mxCell id="3x4hByumME01eo94Uom0-36" value="" style="shape=image;html=1;verticalAlign=top;verticalLabelPosition=bottom;labelBackgroundColor=#ffffff;imageAspect=0;aspect=fixed;image=https://cdn3.iconfinder.com/data/icons/user-interface-797/32/User_interface_option_horizontal_list_menu_UI-128.png;rotation=90;" vertex="1" parent="1">
          <mxGeometry x="646" y="731" width="28" height="28" as="geometry" />
        </mxCell>
        <mxCell id="3x4hByumME01eo94Uom0-39" value="" style="rounded=0;whiteSpace=wrap;html=1;" vertex="1" parent="1">
          <mxGeometry x="120" y="900" width="590" height="130" as="geometry" />
        </mxCell>
        <mxCell id="3x4hByumME01eo94Uom0-42" value="&lt;h1 style=&quot;margin-top: 0px;&quot;&gt;Heading&lt;/h1&gt;&lt;p&gt;Lorem ipsum dolor sit amet, consectetur adipisicing elit, sed do eiusmod tempor incididunt ut labore et dolore magna aliqua.&lt;/p&gt;" style="text;html=1;whiteSpace=wrap;overflow=hidden;rounded=0;" vertex="1" parent="1">
          <mxGeometry x="130" y="790" width="510" height="90" as="geometry" />
        </mxCell>
        <mxCell id="3x4hByumME01eo94Uom0-43" value="" style="shape=image;html=1;verticalAlign=top;verticalLabelPosition=bottom;labelBackgroundColor=#ffffff;imageAspect=0;aspect=fixed;image=https://cdn3.iconfinder.com/data/icons/user-interface-797/32/User_interface_option_horizontal_list_menu_UI-128.png;rotation=90;" vertex="1" parent="1">
          <mxGeometry x="646" y="821" width="28" height="28" as="geometry" />
        </mxCell>
        <mxCell id="2DfNFQR0HhvmWzw1FXsk-2" value="Form" style="text;strokeColor=none;fillColor=none;html=1;fontSize=24;fontStyle=1;verticalAlign=middle;align=center;" vertex="1" parent="1">
          <mxGeometry x="340" y="270" width="100" height="40" as="geometry" />
        </mxCell>
        <mxCell id="2DfNFQR0HhvmWzw1FXsk-3" value="Footer" style="text;strokeColor=none;fillColor=none;html=1;fontSize=24;fontStyle=1;verticalAlign=middle;align=center;" vertex="1" parent="1">
          <mxGeometry x="375" y="945" width="100" height="40" as="geometry" />
        </mxCell>
      </root>
    </mxGraphModel>
  </diagram>
  <diagram id="IzytPdPMPGfhQe3ve3zR" name="Sign In">
    <mxGraphModel dx="794" dy="446" grid="1" gridSize="10" guides="1" tooltips="1" connect="1" arrows="1" fold="1" page="1" pageScale="1" pageWidth="850" pageHeight="1100" math="0" shadow="0">
      <root>
        <mxCell id="0" />
        <mxCell id="1" parent="0" />
        <mxCell id="PIt8ADYwdlNZ4LiqXpWc-1" value="" style="strokeWidth=1;shadow=0;dashed=0;align=center;html=1;shape=mxgraph.mockup.forms.rrect;rSize=0;strokeColor=#999999;fillColor=#ffffff;" vertex="1" parent="1">
          <mxGeometry x="90" y="170" width="490" height="370" as="geometry" />
        </mxCell>
        <mxCell id="PIt8ADYwdlNZ4LiqXpWc-2" value="" style="strokeWidth=1;shadow=0;dashed=0;align=center;html=1;shape=mxgraph.mockup.forms.anchor;fontSize=12;fontColor=#666666;align=left;resizeWidth=1;spacingLeft=0;" vertex="1" parent="PIt8ADYwdlNZ4LiqXpWc-1">
          <mxGeometry width="244.99999999999997" height="20" relative="1" as="geometry">
            <mxPoint x="10" y="10" as="offset" />
          </mxGeometry>
        </mxCell>
        <mxCell id="PIt8ADYwdlNZ4LiqXpWc-3" value="" style="shape=line;strokeColor=#ddeeff;strokeWidth=2;html=1;resizeWidth=1;" vertex="1" parent="PIt8ADYwdlNZ4LiqXpWc-1">
          <mxGeometry width="440.9999999999999" height="10" relative="1" as="geometry">
            <mxPoint y="70" as="offset" />
          </mxGeometry>
        </mxCell>
        <mxCell id="PIt8ADYwdlNZ4LiqXpWc-4" value="User Name:" style="strokeWidth=1;shadow=0;dashed=0;align=center;html=1;shape=mxgraph.mockup.forms.anchor;fontSize=12;fontColor=#666666;align=left;resizeWidth=1;spacingLeft=0;" vertex="1" parent="PIt8ADYwdlNZ4LiqXpWc-1">
          <mxGeometry width="244.99999999999997" height="20" relative="1" as="geometry">
            <mxPoint x="10" y="100" as="offset" />
          </mxGeometry>
        </mxCell>
        <mxCell id="PIt8ADYwdlNZ4LiqXpWc-5" value="johndoe" style="strokeWidth=1;shadow=0;dashed=0;align=center;html=1;shape=mxgraph.mockup.forms.rrect;rSize=0;strokeColor=#999999;fontColor=#666666;align=left;spacingLeft=5;resizeWidth=1;" vertex="1" parent="PIt8ADYwdlNZ4LiqXpWc-1">
          <mxGeometry width="367.49999999999994" height="25" relative="1" as="geometry">
            <mxPoint x="10" y="120" as="offset" />
          </mxGeometry>
        </mxCell>
        <mxCell id="PIt8ADYwdlNZ4LiqXpWc-6" value="Password:" style="strokeWidth=1;shadow=0;dashed=0;align=center;html=1;shape=mxgraph.mockup.forms.anchor;fontSize=12;fontColor=#666666;align=left;resizeWidth=1;spacingLeft=0;" vertex="1" parent="PIt8ADYwdlNZ4LiqXpWc-1">
          <mxGeometry width="244.99999999999997" height="20" relative="1" as="geometry">
            <mxPoint x="10" y="155" as="offset" />
          </mxGeometry>
        </mxCell>
        <mxCell id="PIt8ADYwdlNZ4LiqXpWc-7" value="********" style="strokeWidth=1;shadow=0;dashed=0;align=center;html=1;shape=mxgraph.mockup.forms.rrect;rSize=0;strokeColor=#999999;fontColor=#666666;align=left;spacingLeft=5;resizeWidth=1;" vertex="1" parent="PIt8ADYwdlNZ4LiqXpWc-1">
          <mxGeometry width="367.49999999999994" height="25" relative="1" as="geometry">
            <mxPoint x="10" y="175" as="offset" />
          </mxGeometry>
        </mxCell>
        <mxCell id="PIt8ADYwdlNZ4LiqXpWc-8" value="SIGN IN" style="strokeWidth=1;shadow=0;dashed=0;align=center;html=1;shape=mxgraph.mockup.forms.rrect;rSize=5;strokeColor=none;fontColor=#ffffff;fillColor=#66bbff;fontSize=16;fontStyle=1;" vertex="1" parent="PIt8ADYwdlNZ4LiqXpWc-1">
          <mxGeometry y="1" width="80" height="30" relative="1" as="geometry">
            <mxPoint x="300" y="-160" as="offset" />
          </mxGeometry>
        </mxCell>
        <mxCell id="PIt8ADYwdlNZ4LiqXpWc-9" value="Forgot Password?" style="strokeWidth=1;shadow=0;dashed=0;align=center;html=1;shape=mxgraph.mockup.forms.anchor;fontSize=12;fontColor=#9999ff;align=left;spacingLeft=0;fontStyle=4;resizeWidth=1;" vertex="1" parent="PIt8ADYwdlNZ4LiqXpWc-1">
          <mxGeometry y="1" width="130" height="20" relative="1" as="geometry">
            <mxPoint x="10" y="-150" as="offset" />
          </mxGeometry>
        </mxCell>
        <mxCell id="PIt8ADYwdlNZ4LiqXpWc-10" value="" style="shape=line;strokeColor=#ddeeff;strokeWidth=2;html=1;resizeWidth=1;" vertex="1" parent="PIt8ADYwdlNZ4LiqXpWc-1">
          <mxGeometry y="1" width="440.9999999999999" height="10" relative="1" as="geometry">
            <mxPoint y="-90" as="offset" />
          </mxGeometry>
        </mxCell>
        <mxCell id="PIt8ADYwdlNZ4LiqXpWc-11" value="" style="strokeWidth=1;shadow=0;dashed=0;align=center;html=1;shape=mxgraph.mockup.forms.anchor;fontSize=12;fontColor=#666666;align=left;spacingLeft=0;resizeWidth=1;" vertex="1" parent="PIt8ADYwdlNZ4LiqXpWc-1">
          <mxGeometry y="1" width="70" height="20" relative="1" as="geometry">
            <mxPoint x="30" y="-140" as="offset" />
          </mxGeometry>
        </mxCell>
        <mxCell id="PIt8ADYwdlNZ4LiqXpWc-13" value="&lt;span style=&quot;font-size: 14px;&quot;&gt;&lt;font color=&quot;#de2853&quot;&gt;Register Here&lt;/font&gt;&lt;/span&gt;" style="strokeWidth=1;shadow=0;dashed=0;align=center;html=1;shape=mxgraph.mockup.forms.anchor;fontSize=12;fontColor=#9999ff;align=left;spacingLeft=0;fontStyle=4;resizeWidth=1;" vertex="1" parent="PIt8ADYwdlNZ4LiqXpWc-1">
          <mxGeometry x="110" y="300" width="130" height="20" as="geometry" />
        </mxCell>
        <mxCell id="PIt8ADYwdlNZ4LiqXpWc-14" value="&lt;font style=&quot;font-weight: normal; font-size: 14px;&quot;&gt;New Writer ?&lt;/font&gt;" style="text;strokeColor=none;fillColor=none;html=1;fontSize=24;fontStyle=1;verticalAlign=middle;align=left;" vertex="1" parent="PIt8ADYwdlNZ4LiqXpWc-1">
          <mxGeometry x="10" y="290" width="100" height="40" as="geometry" />
        </mxCell>
        <mxCell id="YxDLEsgu_CgFRWMcJ26E-1" value="Notes - Login" style="text;strokeColor=none;fillColor=none;html=1;fontSize=24;fontStyle=1;verticalAlign=middle;align=center;" vertex="1" parent="PIt8ADYwdlNZ4LiqXpWc-1">
          <mxGeometry x="155" y="10" width="180" height="40" as="geometry" />
        </mxCell>
      </root>
    </mxGraphModel>
  </diagram>
  <diagram id="xSyqDmCMOS5zJ63Zc0Rz" name="Sign Up">
    <mxGraphModel dx="794" dy="446" grid="1" gridSize="10" guides="1" tooltips="1" connect="1" arrows="1" fold="1" page="1" pageScale="1" pageWidth="850" pageHeight="1100" math="0" shadow="0">
      <root>
        <mxCell id="0" />
        <mxCell id="1" parent="0" />
        <mxCell id="Q_tldeaNphsJ2G3xtFfW-1" value="" style="strokeWidth=1;shadow=0;dashed=0;align=center;html=1;shape=mxgraph.mockup.forms.rrect;rSize=0;strokeColor=#999999;fillColor=#ffffff;" vertex="1" parent="1">
          <mxGeometry x="310" y="80" width="200" height="300" as="geometry" />
        </mxCell>
        <mxCell id="Q_tldeaNphsJ2G3xtFfW-2" value="Sign Up" style="strokeWidth=1;shadow=0;dashed=0;align=center;html=1;shape=mxgraph.mockup.forms.anchor;fontSize=12;fontColor=#666666;align=left;resizeWidth=1;spacingLeft=0;" vertex="1" parent="Q_tldeaNphsJ2G3xtFfW-1">
          <mxGeometry width="100" height="20" relative="1" as="geometry">
            <mxPoint x="10" y="10" as="offset" />
          </mxGeometry>
        </mxCell>
        <mxCell id="Q_tldeaNphsJ2G3xtFfW-3" value="" style="shape=line;strokeColor=#ddeeff;strokeWidth=2;html=1;resizeWidth=1;" vertex="1" parent="Q_tldeaNphsJ2G3xtFfW-1">
          <mxGeometry width="180" height="10" relative="1" as="geometry">
            <mxPoint x="10" y="30" as="offset" />
          </mxGeometry>
        </mxCell>
        <mxCell id="Q_tldeaNphsJ2G3xtFfW-4" value="User Name:" style="strokeWidth=1;shadow=0;dashed=0;align=center;html=1;shape=mxgraph.mockup.forms.anchor;fontSize=12;fontColor=#666666;align=left;resizeWidth=1;spacingLeft=0;" vertex="1" parent="Q_tldeaNphsJ2G3xtFfW-1">
          <mxGeometry width="100" height="20" relative="1" as="geometry">
            <mxPoint x="10" y="40" as="offset" />
          </mxGeometry>
        </mxCell>
        <mxCell id="Q_tldeaNphsJ2G3xtFfW-5" value="johndoe" style="strokeWidth=1;shadow=0;dashed=0;align=center;html=1;shape=mxgraph.mockup.forms.rrect;rSize=0;strokeColor=#999999;fontColor=#666666;align=left;spacingLeft=5;resizeWidth=1;" vertex="1" parent="Q_tldeaNphsJ2G3xtFfW-1">
          <mxGeometry width="150" height="25" relative="1" as="geometry">
            <mxPoint x="10" y="60" as="offset" />
          </mxGeometry>
        </mxCell>
        <mxCell id="Q_tldeaNphsJ2G3xtFfW-6" value="Password:" style="strokeWidth=1;shadow=0;dashed=0;align=center;html=1;shape=mxgraph.mockup.forms.anchor;fontSize=12;fontColor=#666666;align=left;resizeWidth=1;spacingLeft=0;" vertex="1" parent="Q_tldeaNphsJ2G3xtFfW-1">
          <mxGeometry width="100" height="20" relative="1" as="geometry">
            <mxPoint x="10" y="95" as="offset" />
          </mxGeometry>
        </mxCell>
        <mxCell id="Q_tldeaNphsJ2G3xtFfW-7" value="********" style="strokeWidth=1;shadow=0;dashed=0;align=center;html=1;shape=mxgraph.mockup.forms.rrect;rSize=0;strokeColor=#999999;fontColor=#666666;align=left;spacingLeft=5;resizeWidth=1;" vertex="1" parent="Q_tldeaNphsJ2G3xtFfW-1">
          <mxGeometry width="150" height="25" relative="1" as="geometry">
            <mxPoint x="10" y="115" as="offset" />
          </mxGeometry>
        </mxCell>
        <mxCell id="Q_tldeaNphsJ2G3xtFfW-8" value="SIGN UP" style="strokeWidth=1;shadow=0;dashed=0;align=center;html=1;shape=mxgraph.mockup.forms.rrect;rSize=5;strokeColor=none;fontColor=#ffffff;fillColor=#66bbff;fontSize=16;fontStyle=1;" vertex="1" parent="Q_tldeaNphsJ2G3xtFfW-1">
          <mxGeometry y="1" width="80" height="30" relative="1" as="geometry">
            <mxPoint x="20" y="-150" as="offset" />
          </mxGeometry>
        </mxCell>
        <mxCell id="Q_tldeaNphsJ2G3xtFfW-9" value="Forgot Password?" style="strokeWidth=1;shadow=0;dashed=0;align=center;html=1;shape=mxgraph.mockup.forms.anchor;fontSize=12;fontColor=#9999ff;align=left;spacingLeft=0;fontStyle=4;resizeWidth=1;" vertex="1" parent="Q_tldeaNphsJ2G3xtFfW-1">
          <mxGeometry y="1" width="150" height="20" relative="1" as="geometry">
            <mxPoint x="10" y="-110" as="offset" />
          </mxGeometry>
        </mxCell>
        <mxCell id="Q_tldeaNphsJ2G3xtFfW-10" value="" style="shape=line;strokeColor=#ddeeff;strokeWidth=2;html=1;resizeWidth=1;" vertex="1" parent="Q_tldeaNphsJ2G3xtFfW-1">
          <mxGeometry y="1" width="180" height="10" relative="1" as="geometry">
            <mxPoint x="10" y="-90" as="offset" />
          </mxGeometry>
        </mxCell>
        <mxCell id="Q_tldeaNphsJ2G3xtFfW-11" value="Already Exists" style="strokeWidth=1;shadow=0;dashed=0;align=center;html=1;shape=mxgraph.mockup.forms.anchor;fontSize=12;fontColor=#666666;align=left;spacingLeft=0;resizeWidth=1;" vertex="1" parent="Q_tldeaNphsJ2G3xtFfW-1">
          <mxGeometry y="1" width="150" height="20" relative="1" as="geometry">
            <mxPoint x="10" y="-70" as="offset" />
          </mxGeometry>
        </mxCell>
        <mxCell id="Q_tldeaNphsJ2G3xtFfW-12" value="Sign In" style="strokeWidth=1;shadow=0;dashed=0;align=center;html=1;shape=mxgraph.mockup.forms.rrect;rSize=5;strokeColor=none;fontColor=#ffffff;fillColor=#66bbff;fontSize=16;fontStyle=1;" vertex="1" parent="Q_tldeaNphsJ2G3xtFfW-1">
          <mxGeometry y="1" width="80" height="30" relative="1" as="geometry">
            <mxPoint x="20" y="-50" as="offset" />
          </mxGeometry>
        </mxCell>
      </root>
    </mxGraphModel>
  </diagram>
  <diagram id="yQCm3SbdXInkTqhAf-yB" name="All Notes">
    <mxGraphModel dx="794" dy="446" grid="1" gridSize="10" guides="1" tooltips="1" connect="1" arrows="1" fold="1" page="1" pageScale="1" pageWidth="850" pageHeight="1100" math="0" shadow="0">
      <root>
        <mxCell id="0" />
        <mxCell id="1" parent="0" />
        <mxCell id="d2Jo-64pAfSHCjoBaFFs-2" value="" style="rounded=1;arcSize=9;align=left;spacingLeft=5;strokeColor=#4C9AFF;html=1;strokeWidth=2;fontSize=12" vertex="1" parent="1">
          <mxGeometry x="220" y="140" width="290" height="33" as="geometry" />
        </mxCell>
        <UserObject label="%date{ddd mmm dd yyyy HH:MM:ss}%" placeholders="1" id="d2Jo-64pAfSHCjoBaFFs-3">
          <mxCell style="text;html=1;strokeColor=none;fillColor=none;align=center;verticalAlign=middle;whiteSpace=wrap;overflow=hidden;" vertex="1" parent="1">
            <mxGeometry x="210" y="146.5" width="160" height="20" as="geometry" />
          </mxCell>
        </UserObject>
        <mxCell id="d2Jo-64pAfSHCjoBaFFs-4" value="" style="sketch=0;pointerEvents=1;shadow=0;dashed=0;html=1;strokeColor=none;fillColor=#505050;labelPosition=center;verticalLabelPosition=bottom;verticalAlign=top;outlineConnect=0;align=center;shape=mxgraph.office.concepts.calendar;" vertex="1" parent="1">
          <mxGeometry x="480" y="146.5" width="24.24" height="20" as="geometry" />
        </mxCell>
        <mxCell id="d2Jo-64pAfSHCjoBaFFs-5" value="Select Date" style="text;strokeColor=none;fillColor=none;html=1;fontSize=24;fontStyle=1;verticalAlign=middle;align=center;" vertex="1" parent="1">
          <mxGeometry x="70" y="133" width="150" height="40" as="geometry" />
        </mxCell>
        <mxCell id="d2Jo-64pAfSHCjoBaFFs-8" value="&lt;h1 style=&quot;margin-top: 0px;&quot;&gt;Heading&lt;/h1&gt;&lt;p&gt;Lorem ipsum dolor sit amet, consectetur adipisicing elit, sed do eiusmod tempor incididunt ut labore et dolore magna aliqua.&lt;/p&gt;" style="text;html=1;whiteSpace=wrap;overflow=hidden;rounded=0;" vertex="1" parent="1">
          <mxGeometry x="80" y="200" width="660" height="90" as="geometry" />
        </mxCell>
        <mxCell id="d2Jo-64pAfSHCjoBaFFs-9" value="&lt;h1 style=&quot;margin-top: 0px;&quot;&gt;Heading&lt;/h1&gt;&lt;p&gt;Lorem ipsum dolor sit amet, consectetur adipisicing elit, sed do eiusmod tempor incididunt ut labore et dolore magna aliqua.&lt;/p&gt;" style="text;html=1;whiteSpace=wrap;overflow=hidden;rounded=0;" vertex="1" parent="1">
          <mxGeometry x="80" y="280" width="660" height="90" as="geometry" />
        </mxCell>
        <mxCell id="d2Jo-64pAfSHCjoBaFFs-10" value="&lt;h1 style=&quot;margin-top: 0px;&quot;&gt;Heading&lt;/h1&gt;&lt;p&gt;Lorem ipsum dolor sit amet, consectetur adipisicing elit, sed do eiusmod tempor incididunt ut labore et dolore magna aliqua.&lt;/p&gt;" style="text;html=1;whiteSpace=wrap;overflow=hidden;rounded=0;" vertex="1" parent="1">
          <mxGeometry x="80" y="380" width="660" height="90" as="geometry" />
        </mxCell>
        <mxCell id="8apDFixR6FwY8EmBF7n--1" value="List of&amp;nbsp; Notes&amp;nbsp;" style="text;strokeColor=none;fillColor=none;html=1;fontSize=24;fontStyle=1;verticalAlign=middle;align=center;" vertex="1" parent="1">
          <mxGeometry x="40" y="80" width="240" height="40" as="geometry" />
        </mxCell>
      </root>
    </mxGraphModel>
  </diagram>
  <diagram id="dCxWNPWPVcO_TCrfq1-z" name="Data Base">
    <mxGraphModel dx="794" dy="446" grid="1" gridSize="10" guides="1" tooltips="1" connect="1" arrows="1" fold="1" page="1" pageScale="1" pageWidth="850" pageHeight="1100" math="0" shadow="0">
      <root>
        <mxCell id="0" />
        <mxCell id="1" parent="0" />
        <mxCell id="f1b21Niqsc0mceTE36bu-2" value="" style="verticalLabelPosition=bottom;html=1;verticalAlign=top;align=center;strokeColor=none;fillColor=#00BEF2;shape=mxgraph.azure.sql_database;" vertex="1" parent="1">
          <mxGeometry x="400" y="30" width="50" height="80" as="geometry" />
        </mxCell>
        <mxCell id="f1b21Niqsc0mceTE36bu-3" value="User Table" style="shape=table;startSize=30;container=1;collapsible=1;childLayout=tableLayout;fixedRows=1;rowLines=0;fontStyle=1;align=center;resizeLast=1;html=1;" vertex="1" parent="1">
          <mxGeometry x="140" y="185" width="180" height="130" as="geometry">
            <mxRectangle x="175" y="160" width="100" height="30" as="alternateBounds" />
          </mxGeometry>
        </mxCell>
        <mxCell id="f1b21Niqsc0mceTE36bu-4" value="" style="shape=tableRow;horizontal=0;startSize=0;swimlaneHead=0;swimlaneBody=0;fillColor=none;collapsible=0;dropTarget=0;points=[[0,0.5],[1,0.5]];portConstraint=eastwest;top=0;left=0;right=0;bottom=1;" vertex="1" parent="f1b21Niqsc0mceTE36bu-3">
          <mxGeometry y="30" width="180" height="30" as="geometry" />
        </mxCell>
        <mxCell id="f1b21Niqsc0mceTE36bu-5" value="PK" style="shape=partialRectangle;connectable=0;fillColor=none;top=0;left=0;bottom=0;right=0;fontStyle=1;overflow=hidden;whiteSpace=wrap;html=1;" vertex="1" parent="f1b21Niqsc0mceTE36bu-4">
          <mxGeometry width="45" height="30" as="geometry">
            <mxRectangle width="45" height="30" as="alternateBounds" />
          </mxGeometry>
        </mxCell>
        <mxCell id="f1b21Niqsc0mceTE36bu-6" value="User ID" style="shape=partialRectangle;connectable=0;fillColor=none;top=0;left=0;bottom=0;right=0;align=left;spacingLeft=6;fontStyle=5;overflow=hidden;whiteSpace=wrap;html=1;" vertex="1" parent="f1b21Niqsc0mceTE36bu-4">
          <mxGeometry x="45" width="135" height="30" as="geometry">
            <mxRectangle width="135" height="30" as="alternateBounds" />
          </mxGeometry>
        </mxCell>
        <mxCell id="f1b21Niqsc0mceTE36bu-7" value="" style="shape=tableRow;horizontal=0;startSize=0;swimlaneHead=0;swimlaneBody=0;fillColor=none;collapsible=0;dropTarget=0;points=[[0,0.5],[1,0.5]];portConstraint=eastwest;top=0;left=0;right=0;bottom=0;" vertex="1" parent="f1b21Niqsc0mceTE36bu-3">
          <mxGeometry y="60" width="180" height="40" as="geometry" />
        </mxCell>
        <mxCell id="f1b21Niqsc0mceTE36bu-8" value="" style="shape=partialRectangle;connectable=0;fillColor=none;top=0;left=0;bottom=0;right=0;editable=1;overflow=hidden;whiteSpace=wrap;html=1;" vertex="1" parent="f1b21Niqsc0mceTE36bu-7">
          <mxGeometry width="45" height="40" as="geometry">
            <mxRectangle width="45" height="40" as="alternateBounds" />
          </mxGeometry>
        </mxCell>
        <mxCell id="f1b21Niqsc0mceTE36bu-9" value="User Name" style="shape=partialRectangle;connectable=0;fillColor=none;top=0;left=0;bottom=0;right=0;align=left;spacingLeft=6;overflow=hidden;whiteSpace=wrap;html=1;" vertex="1" parent="f1b21Niqsc0mceTE36bu-7">
          <mxGeometry x="45" width="135" height="40" as="geometry">
            <mxRectangle width="135" height="40" as="alternateBounds" />
          </mxGeometry>
        </mxCell>
        <mxCell id="f1b21Niqsc0mceTE36bu-10" value="" style="shape=tableRow;horizontal=0;startSize=0;swimlaneHead=0;swimlaneBody=0;fillColor=none;collapsible=0;dropTarget=0;points=[[0,0.5],[1,0.5]];portConstraint=eastwest;top=0;left=0;right=0;bottom=0;" vertex="1" parent="f1b21Niqsc0mceTE36bu-3">
          <mxGeometry y="100" width="180" height="30" as="geometry" />
        </mxCell>
        <mxCell id="f1b21Niqsc0mceTE36bu-11" value="" style="shape=partialRectangle;connectable=0;fillColor=none;top=0;left=0;bottom=0;right=0;editable=1;overflow=hidden;whiteSpace=wrap;html=1;" vertex="1" parent="f1b21Niqsc0mceTE36bu-10">
          <mxGeometry width="45" height="30" as="geometry">
            <mxRectangle width="45" height="30" as="alternateBounds" />
          </mxGeometry>
        </mxCell>
        <mxCell id="f1b21Niqsc0mceTE36bu-12" value="Password" style="shape=partialRectangle;connectable=0;fillColor=none;top=0;left=0;bottom=0;right=0;align=left;spacingLeft=6;overflow=hidden;whiteSpace=wrap;html=1;" vertex="1" parent="f1b21Niqsc0mceTE36bu-10">
          <mxGeometry x="45" width="135" height="30" as="geometry">
            <mxRectangle width="135" height="30" as="alternateBounds" />
          </mxGeometry>
        </mxCell>
        <mxCell id="f1b21Niqsc0mceTE36bu-19" value="" style="edgeStyle=segmentEdgeStyle;endArrow=classic;html=1;curved=0;rounded=0;endSize=8;startSize=8;exitX=0.5;exitY=1;exitDx=0;exitDy=0;exitPerimeter=0;entryX=0.423;entryY=0;entryDx=0;entryDy=0;entryPerimeter=0;" edge="1" parent="1">
          <mxGeometry width="50" height="50" relative="1" as="geometry">
            <mxPoint x="425" y="110" as="sourcePoint" />
            <mxPoint x="216.14" y="185" as="targetPoint" />
            <Array as="points">
              <mxPoint x="216" y="110" />
            </Array>
          </mxGeometry>
        </mxCell>
        <mxCell id="f1b21Niqsc0mceTE36bu-20" value="Notes Table" style="shape=table;startSize=30;container=1;collapsible=1;childLayout=tableLayout;fixedRows=1;rowLines=0;fontStyle=1;align=center;resizeLast=1;html=1;whiteSpace=wrap;" vertex="1" parent="1">
          <mxGeometry x="570" y="185" width="180" height="180" as="geometry">
            <mxRectangle x="560" y="160" width="100" height="30" as="alternateBounds" />
          </mxGeometry>
        </mxCell>
        <mxCell id="f1b21Niqsc0mceTE36bu-21" value="" style="shape=tableRow;horizontal=0;startSize=0;swimlaneHead=0;swimlaneBody=0;fillColor=none;collapsible=0;dropTarget=0;points=[[0,0.5],[1,0.5]];portConstraint=eastwest;top=0;left=0;right=0;bottom=0;html=1;" vertex="1" parent="f1b21Niqsc0mceTE36bu-20">
          <mxGeometry y="30" width="180" height="30" as="geometry" />
        </mxCell>
        <mxCell id="f1b21Niqsc0mceTE36bu-22" value="PK" style="shape=partialRectangle;connectable=0;fillColor=none;top=0;left=0;bottom=0;right=0;fontStyle=1;overflow=hidden;html=1;whiteSpace=wrap;" vertex="1" parent="f1b21Niqsc0mceTE36bu-21">
          <mxGeometry width="60" height="30" as="geometry">
            <mxRectangle width="60" height="30" as="alternateBounds" />
          </mxGeometry>
        </mxCell>
        <mxCell id="f1b21Niqsc0mceTE36bu-23" value="NoteID" style="shape=partialRectangle;connectable=0;fillColor=none;top=0;left=0;bottom=0;right=0;align=left;spacingLeft=6;fontStyle=5;overflow=hidden;html=1;whiteSpace=wrap;" vertex="1" parent="f1b21Niqsc0mceTE36bu-21">
          <mxGeometry x="60" width="120" height="30" as="geometry">
            <mxRectangle width="120" height="30" as="alternateBounds" />
          </mxGeometry>
        </mxCell>
        <mxCell id="f1b21Niqsc0mceTE36bu-24" value="" style="shape=tableRow;horizontal=0;startSize=0;swimlaneHead=0;swimlaneBody=0;fillColor=none;collapsible=0;dropTarget=0;points=[[0,0.5],[1,0.5]];portConstraint=eastwest;top=0;left=0;right=0;bottom=1;html=1;" vertex="1" parent="f1b21Niqsc0mceTE36bu-20">
          <mxGeometry y="60" width="180" height="30" as="geometry" />
        </mxCell>
        <mxCell id="f1b21Niqsc0mceTE36bu-25" value="FK2" style="shape=partialRectangle;connectable=0;fillColor=none;top=0;left=0;bottom=0;right=0;fontStyle=1;overflow=hidden;html=1;whiteSpace=wrap;" vertex="1" parent="f1b21Niqsc0mceTE36bu-24">
          <mxGeometry width="60" height="30" as="geometry">
            <mxRectangle width="60" height="30" as="alternateBounds" />
          </mxGeometry>
        </mxCell>
        <mxCell id="f1b21Niqsc0mceTE36bu-26" value="User ID" style="shape=partialRectangle;connectable=0;fillColor=none;top=0;left=0;bottom=0;right=0;align=left;spacingLeft=6;fontStyle=5;overflow=hidden;html=1;whiteSpace=wrap;" vertex="1" parent="f1b21Niqsc0mceTE36bu-24">
          <mxGeometry x="60" width="120" height="30" as="geometry">
            <mxRectangle width="120" height="30" as="alternateBounds" />
          </mxGeometry>
        </mxCell>
        <mxCell id="f1b21Niqsc0mceTE36bu-27" value="" style="shape=tableRow;horizontal=0;startSize=0;swimlaneHead=0;swimlaneBody=0;fillColor=none;collapsible=0;dropTarget=0;points=[[0,0.5],[1,0.5]];portConstraint=eastwest;top=0;left=0;right=0;bottom=0;html=1;" vertex="1" parent="f1b21Niqsc0mceTE36bu-20">
          <mxGeometry y="90" width="180" height="30" as="geometry" />
        </mxCell>
        <mxCell id="f1b21Niqsc0mceTE36bu-28" value="" style="shape=partialRectangle;connectable=0;fillColor=none;top=0;left=0;bottom=0;right=0;editable=1;overflow=hidden;html=1;whiteSpace=wrap;" vertex="1" parent="f1b21Niqsc0mceTE36bu-27">
          <mxGeometry width="60" height="30" as="geometry">
            <mxRectangle width="60" height="30" as="alternateBounds" />
          </mxGeometry>
        </mxCell>
        <mxCell id="f1b21Niqsc0mceTE36bu-29" value="Heading" style="shape=partialRectangle;connectable=0;fillColor=none;top=0;left=0;bottom=0;right=0;align=left;spacingLeft=6;overflow=hidden;html=1;whiteSpace=wrap;" vertex="1" parent="f1b21Niqsc0mceTE36bu-27">
          <mxGeometry x="60" width="120" height="30" as="geometry">
            <mxRectangle width="120" height="30" as="alternateBounds" />
          </mxGeometry>
        </mxCell>
        <mxCell id="f1b21Niqsc0mceTE36bu-30" value="" style="shape=tableRow;horizontal=0;startSize=0;swimlaneHead=0;swimlaneBody=0;fillColor=none;collapsible=0;dropTarget=0;points=[[0,0.5],[1,0.5]];portConstraint=eastwest;top=0;left=0;right=0;bottom=0;html=1;" vertex="1" parent="f1b21Niqsc0mceTE36bu-20">
          <mxGeometry y="120" width="180" height="30" as="geometry" />
        </mxCell>
        <mxCell id="f1b21Niqsc0mceTE36bu-31" value="" style="shape=partialRectangle;connectable=0;fillColor=none;top=0;left=0;bottom=0;right=0;editable=1;overflow=hidden;html=1;whiteSpace=wrap;" vertex="1" parent="f1b21Niqsc0mceTE36bu-30">
          <mxGeometry width="60" height="30" as="geometry">
            <mxRectangle width="60" height="30" as="alternateBounds" />
          </mxGeometry>
        </mxCell>
        <mxCell id="f1b21Niqsc0mceTE36bu-32" value="Note" style="shape=partialRectangle;connectable=0;fillColor=none;top=0;left=0;bottom=0;right=0;align=left;spacingLeft=6;overflow=hidden;html=1;whiteSpace=wrap;" vertex="1" parent="f1b21Niqsc0mceTE36bu-30">
          <mxGeometry x="60" width="120" height="30" as="geometry">
            <mxRectangle width="120" height="30" as="alternateBounds" />
          </mxGeometry>
        </mxCell>
        <mxCell id="oKYT7KNp_3l_w255SW4t-3" value="" style="shape=tableRow;horizontal=0;startSize=0;swimlaneHead=0;swimlaneBody=0;fillColor=none;collapsible=0;dropTarget=0;points=[[0,0.5],[1,0.5]];portConstraint=eastwest;top=0;left=0;right=0;bottom=0;html=1;" vertex="1" parent="f1b21Niqsc0mceTE36bu-20">
          <mxGeometry y="150" width="180" height="30" as="geometry" />
        </mxCell>
        <mxCell id="oKYT7KNp_3l_w255SW4t-4" value="" style="shape=partialRectangle;connectable=0;fillColor=none;top=0;left=0;bottom=0;right=0;editable=1;overflow=hidden;html=1;whiteSpace=wrap;" vertex="1" parent="oKYT7KNp_3l_w255SW4t-3">
          <mxGeometry width="60" height="30" as="geometry">
            <mxRectangle width="60" height="30" as="alternateBounds" />
          </mxGeometry>
        </mxCell>
        <mxCell id="oKYT7KNp_3l_w255SW4t-5" value="Created Date" style="shape=partialRectangle;connectable=0;fillColor=none;top=0;left=0;bottom=0;right=0;align=left;spacingLeft=6;overflow=hidden;html=1;whiteSpace=wrap;" vertex="1" parent="oKYT7KNp_3l_w255SW4t-3">
          <mxGeometry x="60" width="120" height="30" as="geometry">
            <mxRectangle width="120" height="30" as="alternateBounds" />
          </mxGeometry>
        </mxCell>
        <mxCell id="oKYT7KNp_3l_w255SW4t-1" value="" style="edgeStyle=segmentEdgeStyle;endArrow=classic;html=1;curved=0;rounded=0;endSize=8;startSize=8;exitX=0.5;exitY=1;exitDx=0;exitDy=0;exitPerimeter=0;entryX=0.5;entryY=0;entryDx=0;entryDy=0;" edge="1" parent="1" source="f1b21Niqsc0mceTE36bu-2" target="f1b21Niqsc0mceTE36bu-20">
          <mxGeometry width="50" height="50" relative="1" as="geometry">
            <mxPoint x="420" y="260" as="sourcePoint" />
            <mxPoint x="470" y="210" as="targetPoint" />
          </mxGeometry>
        </mxCell>
      </root>
    </mxGraphModel>
  </diagram>
</mxfile>
